<svg width="200" height="200" viewBox="0 0 200 200" fill="none" xmlns="http://www.w3.org/2000/svg">
<path d="M176 0C189.255 5.15406e-07 200 10.7452 200 24V176C200 189.255 189.255 200 176 200H24C10.7452 200 0 189.255 0 176V24C5.1544e-07 10.7452 10.7452 0 24 0H176ZM123.587 78L75 176H103.693L112.485 157.242H144.78L147.307 176H176L159.932 78H123.587ZM137.742 104.988L142.099 137.336H121.815L136.978 104.988H137.742ZM76.3721 90.2773C75.862 92.7321 75.0416 94.8094 73.9121 96.5088C72.7827 98.1766 71.3617 99.4509 69.6494 100.332C67.937 101.182 65.9513 101.607 63.6924 101.607C61.4337 101.607 59.612 101.198 58.2275 100.38C56.8431 99.5302 55.8958 98.2868 55.3857 96.6504C54.8757 94.9824 54.8026 92.9205 55.167 90.4658H24.7803C23.3229 97.8929 23.906 103.936 26.5293 108.594C29.189 113.22 33.2699 116.619 38.7715 118.79C44.3094 120.93 50.649 122 57.79 122C66.097 122 73.694 120.679 80.5801 118.035C87.4662 115.36 93.1677 111.646 97.6855 106.894C102.203 102.11 105.083 96.5715 106.321 90.2773L119 24H89.0508L76.3721 90.2773Z" fill="white"/>
</svg>
